<svg xmlns="http://www.w3.org/2000/svg" width="440" height="280" viewBox="0 0 440 280" role="img" aria-labelledby="title desc">
  <title id="title">Inquiry Black Box Chrome Web Store small tile</title>
  <desc id="desc">A compact product tile showing local browser pairing and privacy-safe replay.</desc>
  <rect width="440" height="280" fill="#151816"/>
  <rect x="24" y="24" width="392" height="232" rx="8" fill="#f3f1eb"/>
  <rect x="44" y="48" width="152" height="152" rx="8" fill="#202622"/>
  <circle cx="91" cy="96" r="22" fill="#74d1b8"/>
  <rect x="74" y="132" width="72" height="12" rx="6" fill="#f0bf63"/>
  <rect x="74" y="154" width="92" height="10" rx="5" fill="#8bb9df"/>
  <path d="M210 111h36c14 0 25 11 25 25s-11 25-25 25h-36" fill="none" stroke="#087d73" stroke-width="10" stroke-linecap="round"/>
  <path d="M304 111h-36c-14 0-25 11-25 25s11 25 25 25h36" fill="none" stroke="#087d73" stroke-width="10" stroke-linecap="round"/>
  <rect x="302" y="48" width="82" height="152" rx="8" fill="#202622"/>
  <rect x="320" y="72" width="46" height="10" rx="5" fill="#74d1b8"/>
  <rect x="320" y="96" width="34" height="10" rx="5" fill="#f08da0"/>
  <rect x="320" y="120" width="42" height="10" rx="5" fill="#8bb9df"/>
  <text x="44" y="226" fill="#151515" font-family="Inter, Arial, sans-serif" font-size="28" font-weight="800">Inquiry Black Box</text>
  <text x="44" y="246" fill="#68645d" font-family="Inter, Arial, sans-serif" font-size="14">Local-first replay for research sessions</text>
</svg>
